<mxfile modified="2021-07-26T07:12:02.653Z" host="app.diagrams.net" agent="5.0 (Windows NT 10.0; Win64; x64) AppleWebKit/537.36 (KHTML, like Gecko) Chrome/91.0.4472.164 Safari/537.36" etag="brpILEgPZ5PlzhG-yCQz" version="14.9.2" type="github">
  <diagram id="WI9T0HZ2pTsCkuznbFz-" name="Page-1">
    <mxGraphModel dx="1022" dy="468" grid="1" gridSize="10" guides="1" tooltips="1" connect="1" arrows="1" fold="1" page="1" pageScale="1" pageWidth="827" pageHeight="1169" math="0" shadow="0">
      <root>
        <mxCell id="0" />
        <mxCell id="1" parent="0" />
        <mxCell id="eWjkR0wsdmifyLcniZH0-4" value="" style="shape=image;verticalLabelPosition=bottom;labelBackgroundColor=none;verticalAlign=top;aspect=fixed;imageAspect=0;image=data:image/svg+xml,PHN2ZyB4bWxuczpjYz0iaHR0cDovL2NyZWF0aXZlY29tbW9ucy5vcmcvbnMjIiB4bWxuczpkYz0iaHR0cDovL3B1cmwub3JnL2RjL2VsZW1lbnRzLzEuMS8iIHhtbG5zOmlua3NjYXBlPSJodHRwOi8vd3d3Lmlua3NjYXBlLm9yZy9uYW1lc3BhY2VzL2lua3NjYXBlIiB4bWxuczpyZGY9Imh0dHA6Ly93d3cudzMub3JnLzE5OTkvMDIvMjItcmRmLXN5bnRheC1ucyMiIHhtbG5zOnNvZGlwb2RpPSJodHRwOi8vc29kaXBvZGkuc291cmNlZm9yZ2UubmV0L0RURC9zb2RpcG9kaS0wLmR0ZCIgeG1sbnM6c3ZnPSJodHRwOi8vd3d3LnczLm9yZy8yMDAwL3N2ZyIgeG1sbnM9Imh0dHA6Ly93d3cudzMub3JnLzIwMDAvc3ZnIiB4bWxuczp4bGluaz0iaHR0cDovL3d3dy53My5vcmcvMTk5OS94bGluayIgdmVyc2lvbj0iMS4xIiBpZD0ic3ZnMzE5NiIgaW5rc2NhcGU6dmVyc2lvbj0iMC45Mi4zICgyNDA1NTQ2LCAyMDE4LTAzLTExKSIgc29kaXBvZGk6ZG9jbmFtZT0iZGV2aWNlX2Rlc2t0b3BfMS5zdmciIHg9IjBweCIgeT0iMHB4IiB2aWV3Qm94PSIwIDAgNjYuNzUgNDMuNjMiIHN0eWxlPSJlbmFibGUtYmFja2dyb3VuZDpuZXcgMCAwIDY2Ljc1IDQzLjYzOyIgeG1sOnNwYWNlPSJwcmVzZXJ2ZSI+JiN4YTs8c29kaXBvZGk6bmFtZWR2aWV3IGJvcmRlcmNvbG9yPSIjNjY2NjY2IiBib3JkZXJvcGFjaXR5PSIxIiBmaXQtbWFyZ2luLWJvdHRvbT0iMCIgZml0LW1hcmdpbi1sZWZ0PSIwIiBmaXQtbWFyZ2luLXJpZ2h0PSIwIiBmaXQtbWFyZ2luLXRvcD0iMCIgZ3JpZHRvbGVyYW5jZT0iMTAiIGd1aWRldG9sZXJhbmNlPSIxMCIgaWQ9Im5hbWVkdmlldzMxOTgiIGlua3NjYXBlOmN1cnJlbnQtbGF5ZXI9InN2ZzMxOTYiIGlua3NjYXBlOmN4PSI0NC41MDAwMTUiIGlua3NjYXBlOmN5PSIyOS4wNzk0NCIgaW5rc2NhcGU6cGFnZW9wYWNpdHk9IjAiIGlua3NjYXBlOnBhZ2VzaGFkb3c9IjIiIGlua3NjYXBlOndpbmRvdy1oZWlnaHQ9IjEwMTciIGlua3NjYXBlOndpbmRvdy1tYXhpbWl6ZWQ9IjEiIGlua3NjYXBlOndpbmRvdy13aWR0aD0iMTkyMCIgaW5rc2NhcGU6d2luZG93LXg9Ii04IiBpbmtzY2FwZTp3aW5kb3cteT0iLTgiIGlua3NjYXBlOnpvb209IjE0LjQxMDQxMiIgb2JqZWN0dG9sZXJhbmNlPSIxMCIgcGFnZWNvbG9yPSIjZmZmZmZmIiBzaG93Z3JpZD0iZmFsc2UiPiYjeGE7CTwvc29kaXBvZGk6bmFtZWR2aWV3PiYjeGE7PGcgaWQ9ImczMTk0IiB0cmFuc2Zvcm09InRyYW5zbGF0ZSgtMC43NSwtMC43NDYzNzkpIj4mI3hhOwk8dGl0bGUgaWQ9InRpdGxlMzE1OSI+UGFnZS0xPC90aXRsZT4mI3hhOwk8ZyBpZD0iZ3JvdXAzNTA5LTEiIHRyYW5zZm9ybT0idHJhbnNsYXRlKDAuNzUsLTAuNDAxMTIxKSI+JiN4YTsJCTx0aXRsZSBpZD0idGl0bGUzMTYxIj5EZXZpY2U6IERlc2t0b3AgIzE8L3RpdGxlPiYjeGE7CQk8ZyBpZD0ic2hhcGUzNTEwLTIiIHRyYW5zZm9ybT0idHJhbnNsYXRlKDEuNSwtOS4yODUpIj4mI3hhOwkJCTx0aXRsZSBpZD0idGl0bGUzMTYzIj5yZWN0MjM1MDwvdGl0bGU+JiN4YTsJCQk8cmVjdCBpZD0icmVjdDMxNjUiIHk9IjEwLjYyIiBzdHlsZT0iZmlsbDojNTVBNUU0OyIgd2lkdGg9IjYzIiBoZWlnaHQ9IjM0LjUiLz4mI3hhOwkJPC9nPiYjeGE7CQk8ZyBpZD0ic2hhcGUzNTExLTQiIHRyYW5zZm9ybT0idHJhbnNsYXRlKDQ1LjYzNzUsLTI1LjEwMjUpIj4mI3hhOwkJCTx0aXRsZSBpZD0idGl0bGUzMTY4Ij5wb2x5Z29uMjM1MjwvdGl0bGU+JiN4YTsJCQk8cGF0aCBpZD0icGF0aDMxNzAiIGlua3NjYXBlOmNvbm5lY3Rvci1jdXJ2YXR1cmU9IjAiIHN0eWxlPSJmaWxsOiNGRkZGRkY7ZmlsbC1vcGFjaXR5OjAuMjsiIGQ9Ik0wLDI2LjI1bDE4Ljg2LDE4Ljg3VjI2LjI1SDB6Ii8+JiN4YTsJCTwvZz4mI3hhOwkJPGcgaWQ9InNoYXBlMzUxMi02IiB0cmFuc2Zvcm09InRyYW5zbGF0ZSgxOS44NTI1LC0xLjIyMjUpIj4mI3hhOwkJCTx0aXRsZSBpZD0idGl0bGUzMTczIj5wb2x5Z29uMjM1NDwvdGl0bGU+JiN4YTsJCQk8cGF0aCBpZD0icGF0aDMxNzUiIGlua3NjYXBlOmNvbm5lY3Rvci1jdXJ2YXR1cmU9IjAiIHN0eWxlPSJmaWxsOiM1RTVFNUU7IiBkPSJNMS42LDQzLjYyaDI0LjAzbDEuNTksMS41SDBMMS42LDQzLjYyeiIvPiYjeGE7CQk8L2c+JiN4YTsJCTxnIGlkPSJzaGFwZTM1MTMtOCIgdHJhbnNmb3JtPSJ0cmFuc2xhdGUoMTkuODIyNSkiPiYjeGE7CQkJPHRpdGxlIGlkPSJ0aXRsZTMxNzgiPnBhdGgyMzU2PC90aXRsZT4mI3hhOwkJCTxwYXRoIGlkPSJwYXRoMzE4MCIgaW5rc2NhcGU6Y29ubmVjdG9yLWN1cnZhdHVyZT0iMCIgc3R5bGU9ImZpbGw6IzJFMkUyRTsiIGQ9Ik0yNi4xNyw0NC42NUgxLjE4QzAuMDIsNDUuMTIsMCw0NC4xLDAsNDMuOSAgICAgaDI3LjI4QzI3LjI1LDQ0LjEsMjcuNDMsNDUuMTIsMjYuMTcsNDQuNjV6Ii8+JiN4YTsJCTwvZz4mI3hhOwkJPGcgaWQ9InNoYXBlMzUxNC0xMCIgdHJhbnNmb3JtPSJ0cmFuc2xhdGUoMjcuNzUsLTEuOTcyNSkiPiYjeGE7CQkJPHRpdGxlIGlkPSJ0aXRsZTMxODMiPnBvbHlnb24yMzU4PC90aXRsZT4mI3hhOwkJCTxwYXRoIGlkPSJwYXRoMzE4NSIgaW5rc2NhcGU6Y29ubmVjdG9yLWN1cnZhdHVyZT0iMCIgc3R5bGU9ImZpbGw6IzJFMkUyRTsiIGQ9Ik0wLjkzLDM5Ljg3aDkuNTdsMC45Myw1LjI1SDBMMC45MywzOS44N3oiLz4mI3hhOwkJPC9nPiYjeGE7CQk8ZyBpZD0ic2hhcGUzNTE1LTEyIiB0cmFuc2Zvcm09InRyYW5zbGF0ZSgwLC03LjIyMjUpIj4mI3hhOwkJCTx0aXRsZSBpZD0idGl0bGUzMTg4Ij5wYXRoMjM2MDwvdGl0bGU+JiN4YTsJCQk8cGF0aCBpZD0icGF0aDMxOTAiIGlua3NjYXBlOmNvbm5lY3Rvci1jdXJ2YXR1cmU9IjAiIHN0eWxlPSJmaWxsOiMyMjFGMUY7IiBkPSJNNjUuMjUsOC4zN0gxLjVDMC42Nyw4LjM3LDAsOS4wNCwwLDkuODd2MzMuNzUgICAgIGMwLDAuODMsMC42NywxLjUsMS41LDEuNWg2My43NWMwLjgzLDAsMS41LTAuNjcsMS41LTEuNVY5Ljg3QzY2Ljc1LDkuMDQsNjYuMDgsOC4zNyw2NS4yNSw4LjM3eiBNNjQuNSw0Mi44N0gyLjI1VjEwLjYySDY0LjUgICAgIFY0Mi44N3oiLz4mI3hhOwkJPC9nPiYjeGE7CTwvZz4mI3hhOzwvZz4mI3hhOzwvc3ZnPg==;" parent="1" vertex="1">
          <mxGeometry x="70" y="392" width="67" height="44" as="geometry" />
        </mxCell>
        <mxCell id="rI1JX8pW7Fap40Gf1UJg-1" value="" style="rounded=0;whiteSpace=wrap;html=1;fillColor=#EAEDED;fontSize=22;fontColor=#FFFFFF;strokeColor=none;labelBackgroundColor=none;" parent="1" vertex="1">
          <mxGeometry x="1073.5" y="156.5" width="539" height="855" as="geometry" />
        </mxCell>
        <mxCell id="rI1JX8pW7Fap40Gf1UJg-2" value="&lt;span&gt;Lorem ipsum dolor sit amet, consectetur adipiscing elit, sed do eiusmod tempor incididunt ut labore et dolore magna aliqua. Ut enim ad minim veniam, quis nostrud exercitation ullamco laboris nisi ut aliquip ex ea commodo consequat. Duis aute irure dolor in reprehenderit in voluptate velit esse cillum dolore eu fugiat nulla pariatur. Excepteur sint occaecat cupidatat non proident, sunt in culpa qui officia deserunt mollit anim id est laborum.&lt;/span&gt;&lt;br&gt;" style="text;html=1;align=left;verticalAlign=top;spacingTop=-4;fontSize=14;labelBackgroundColor=none;whiteSpace=wrap;" parent="1" vertex="1">
          <mxGeometry x="1143" y="167.5" width="449" height="118" as="geometry" />
        </mxCell>
        <mxCell id="rI1JX8pW7Fap40Gf1UJg-3" value="&lt;span&gt;Lorem ipsum dolor sit amet, consectetur adipiscing elit, sed do eiusmod tempor incididunt ut labore et dolore magna aliqua. Ut enim ad minim veniam, quis nostrud exercitation ullamco laboris nisi ut aliquip ex ea commodo consequat. Duis aute irure dolor in reprehenderit in voluptate velit esse cillum dolore eu fugiat nulla pariatur. Excepteur sint occaecat cupidatat non proident, sunt in culpa qui officia deserunt mollit anim id est laborum.&lt;/span&gt;&lt;br&gt;" style="text;html=1;align=left;verticalAlign=top;spacingTop=-4;fontSize=14;labelBackgroundColor=none;whiteSpace=wrap;" parent="1" vertex="1">
          <mxGeometry x="1142" y="290.5" width="450" height="115" as="geometry" />
        </mxCell>
        <mxCell id="rI1JX8pW7Fap40Gf1UJg-4" value="&lt;span&gt;Lorem ipsum dolor sit amet, consectetur adipiscing elit, sed do eiusmod tempor incididunt ut labore et dolore magna aliqua. Ut enim ad minim veniam, quis nostrud exercitation ullamco laboris nisi ut aliquip ex ea commodo consequat. Duis aute irure dolor in reprehenderit in voluptate velit esse cillum dolore eu fugiat nulla pariatur. Excepteur sint occaecat cupidatat non proident, sunt in culpa qui officia deserunt mollit anim id est laborum.&lt;/span&gt;&lt;br&gt;" style="text;html=1;align=left;verticalAlign=top;spacingTop=-4;fontSize=14;labelBackgroundColor=none;whiteSpace=wrap;" parent="1" vertex="1">
          <mxGeometry x="1142" y="408.5" width="450" height="117" as="geometry" />
        </mxCell>
        <mxCell id="rI1JX8pW7Fap40Gf1UJg-5" value="&lt;span&gt;Lorem ipsum dolor sit amet, consectetur adipiscing elit, sed do eiusmod tempor incididunt ut labore et dolore magna aliqua. Ut enim ad minim veniam, quis nostrud exercitation ullamco laboris nisi ut aliquip ex ea commodo consequat. Duis aute irure dolor in reprehenderit in voluptate velit esse cillum dolore eu fugiat nulla pariatur. Excepteur sint occaecat cupidatat non proident, sunt in culpa qui officia deserunt mollit anim id est laborum.&lt;/span&gt;&lt;br&gt;" style="text;html=1;align=left;verticalAlign=top;spacingTop=-4;fontSize=14;labelBackgroundColor=none;whiteSpace=wrap;" parent="1" vertex="1">
          <mxGeometry x="1142" y="524.5" width="450" height="121" as="geometry" />
        </mxCell>
        <mxCell id="rI1JX8pW7Fap40Gf1UJg-6" value="&lt;span&gt;Lorem ipsum dolor sit amet, consectetur adipiscing elit, sed do eiusmod tempor incididunt ut labore et dolore magna aliqua. Ut enim ad minim veniam, quis nostrud exercitation ullamco laboris nisi ut aliquip ex ea commodo consequat. Duis aute irure dolor in reprehenderit in voluptate velit esse cillum dolore eu fugiat nulla pariatur. Excepteur sint occaecat cupidatat non proident, sunt in culpa qui officia deserunt mollit anim id est laborum.&lt;/span&gt;&lt;br&gt;" style="text;html=1;align=left;verticalAlign=top;spacingTop=-4;fontSize=14;labelBackgroundColor=none;whiteSpace=wrap;" parent="1" vertex="1">
          <mxGeometry x="1143" y="641.5" width="449" height="114" as="geometry" />
        </mxCell>
        <mxCell id="rI1JX8pW7Fap40Gf1UJg-7" value="&lt;span&gt;Lorem ipsum dolor sit amet, consectetur adipiscing elit, sed do eiusmod tempor incididunt ut labore et dolore magna aliqua. Ut enim ad minim veniam, quis nostrud exercitation ullamco laboris nisi ut aliquip ex ea commodo consequat. Duis aute irure dolor in reprehenderit in voluptate velit esse cillum dolore eu fugiat nulla pariatur. Excepteur sint occaecat cupidatat non proident, sunt in culpa qui officia deserunt mollit anim id est laborum.&lt;/span&gt;&lt;br&gt;" style="text;html=1;align=left;verticalAlign=top;spacingTop=-4;fontSize=14;labelBackgroundColor=none;whiteSpace=wrap;" parent="1" vertex="1">
          <mxGeometry x="1143" y="757.5" width="450" height="118" as="geometry" />
        </mxCell>
        <mxCell id="rI1JX8pW7Fap40Gf1UJg-8" value="&lt;span&gt;Lorem ipsum dolor sit amet, consectetur adipiscing elit, sed do eiusmod tempor incididunt ut labore et dolore magna aliqua. Ut enim ad minim veniam, quis nostrud exercitation ullamco laboris nisi ut aliquip ex ea commodo consequat. Duis aute irure dolor in reprehenderit in voluptate velit esse cillum dolore eu fugiat nulla pariatur. Excepteur sint occaecat cupidatat non proident, sunt in culpa qui officia deserunt mollit anim id est laborum.&lt;/span&gt;&lt;br&gt;" style="text;html=1;align=left;verticalAlign=top;spacingTop=-4;fontSize=14;labelBackgroundColor=none;whiteSpace=wrap;" parent="1" vertex="1">
          <mxGeometry x="1143" y="872.5" width="449" height="113" as="geometry" />
        </mxCell>
        <mxCell id="rI1JX8pW7Fap40Gf1UJg-9" value="1" style="ellipse;whiteSpace=wrap;html=1;aspect=fixed;fillColor=#4D9900;strokeColor=none;labelBackgroundColor=none;" parent="1" vertex="1">
          <mxGeometry x="1093.5" y="174" width="23" height="23" as="geometry" />
        </mxCell>
        <mxCell id="rI1JX8pW7Fap40Gf1UJg-10" value="2" style="ellipse;whiteSpace=wrap;html=1;aspect=fixed;fillColor=#4D9900;strokeColor=none;labelBackgroundColor=none;" parent="1" vertex="1">
          <mxGeometry x="1093.5" y="295" width="23" height="23" as="geometry" />
        </mxCell>
        <mxCell id="rI1JX8pW7Fap40Gf1UJg-11" value="3" style="ellipse;whiteSpace=wrap;html=1;aspect=fixed;fillColor=#4D9900;strokeColor=none;labelBackgroundColor=none;" parent="1" vertex="1">
          <mxGeometry x="1093.5" y="416" width="23" height="23" as="geometry" />
        </mxCell>
        <mxCell id="rI1JX8pW7Fap40Gf1UJg-12" value="4" style="ellipse;whiteSpace=wrap;html=1;aspect=fixed;fillColor=#4D9900;strokeColor=none;labelBackgroundColor=none;" parent="1" vertex="1">
          <mxGeometry x="1093.4999999999995" y="533" width="23" height="23" as="geometry" />
        </mxCell>
        <mxCell id="rI1JX8pW7Fap40Gf1UJg-13" value="5" style="ellipse;whiteSpace=wrap;html=1;aspect=fixed;fillColor=#4D9900;strokeColor=none;labelBackgroundColor=none;" parent="1" vertex="1">
          <mxGeometry x="1093.4999999999995" y="645.5" width="23" height="23" as="geometry" />
        </mxCell>
        <mxCell id="rI1JX8pW7Fap40Gf1UJg-14" value="6" style="ellipse;whiteSpace=wrap;html=1;aspect=fixed;fillColor=#4D9900;strokeColor=none;labelBackgroundColor=none;" parent="1" vertex="1">
          <mxGeometry x="1093.4999999999995" y="767" width="23" height="23" as="geometry" />
        </mxCell>
        <mxCell id="rI1JX8pW7Fap40Gf1UJg-15" value="7" style="ellipse;whiteSpace=wrap;html=1;aspect=fixed;fillColor=#4D9900;strokeColor=none;labelBackgroundColor=none;" parent="1" vertex="1">
          <mxGeometry x="1093.5" y="875.5" width="23" height="23" as="geometry" />
        </mxCell>
        <mxCell id="Gzrth85yrPaaRrtoOENp-2" value="" style="shape=image;verticalLabelPosition=bottom;labelBackgroundColor=#ffffff;verticalAlign=top;aspect=fixed;imageAspect=0;image=data:image/png,iVBORw0KGgoAAAANSUhEUgAAAOEAAADhCAMAAAAJbSJIAAAAgVBMVEX///8AAADv7+8dHR37+/tDQ0PT09P4+Pj19fXd3d3Ozs6Ghobm5uZ6enrg4OC0tLSjo6PIyMi9vb3r6+uYmJg2NjYpKSlUVFSDg4Nubm6RkZF0dHRcXFy6urqvr69ISEgaGhqdnZ0lJSVjY2MLCwtVVVUcHBw9PT0uLi4TExNoaGjgjpcRAAAKIElEQVR4nO1d6XqiMBQdEXdUUNGKqGOr1en7P+C4TCuWLOeGm8R+w/ktyIEkdzu5+fWrRo0aNWrUqFGjRo3/BKNkHGfZ4AtZthm3A99PxYFpssnyeUOK4zJe90PfT2mIXhIv9nJuRcxX437k+3lpiPrD7R+M3Sde8+ynDNtwmr0R2X0iXa27vh9fi96sZcbuE2+bZ56W0ea1Gr0b8olvImKEyYfh4CxjPuv5plNCsNly0bvh47mMSJA1efldsH2ewTod8NO7Yr7xTe2K6MUSvwt++19Zgxnot5ii5Xmsbk52+V2Qt/3xa6f2+V0w7PjhFyzd8Lsg9kFwY8FAyLF17gIEuUt+F8RuV9W15RVUhIXDELLjcAYW4cwBaLN52FQs3SyqsS9+Z7Qc2Mbu0CPBM8a2CQbMQRIdmV2CPd/8zshtmo21b3ZXbO2ZDZ9rTBFHWw7OsxA8h412vqLNSJeMvgWCnq3Ed/AHxk/1Bc/Yc1PMfDMqg3e5eZ5F5o73KSPBjW82QjCuqBPfXCRocZXj/EVLOuQ8BANHGTUTDFkYeo8mVOBIwq18k1CjunPznMvoHfOqC+ozBIRqHKoR7FSsyrtAtaBfOQkP8Wy1fbdNIH0b7GZKfUCVqThW/ndy/kXYCdaDAyulO9LlrNe9JhCVCdp3c4lKR/n/x6/kZRhtcvZv2RoUFER95U9fjBmqU9uP1pZJafJ180ehQqC+eWJIMFE/RCk52+Yyna9xadypw9OT2Tidqt9bKnB7uxyahYMo6atx/ldGDDVRvdglrKxbaImT2qHmMpP1tK25p8wj7Almb/PU2q6Gcbxp989I4rOZ+Wil83LM0oxltZej+mlOBgx1tl7uLSXF4Z1m44lMVhn1J7tlcREeygO+meZx6JU3tSk8Q1XouiU98l0CJRp648H1Cx1VhSXd8+zJi81vzR23yupBtNqNKLW+sNt/2Skv0E0asvOmTT3xxJ44At0D/aEFGV2t+Z5ZYiKF7oGI73ynvd/OEhEpdNOmsR8R7hYoNhD8g3MNj/6RKGZf/wndMwTcXnwmdgG50/PNQ0qMgeRmzCMWM+jctitgA4XcTG0P+aG1hxegNhFL4jve+wHl/ObgQ2GiPM7KDwCdX3oDprYBE4jWpTuPwHJBC+heYDl7YJnSN2APVU48CBCA0u2ldVJFdEGGiOuGFgtPTieiNpj7h1dgrYHFv051yXACaK29VQQnBV3GT5psYgFv2nvhtSaXW3bCN/ixtPdaoHdy7JjCJSLdMNWG0p/4cMLrjggVE+hiKFhf6XzDLrrG7zXuN6pe0y9Z7ECXU01yGLyLWRa9GtBqrdrZAn3SuWO3+wZ1ie0LC+UwxTx4PxutdNW+LyiTGVh9LPW0W26KMVRVE0HXwXHgdAe2DqqcrQi6g0mdhwcj6Pm2ijtgHrynWXgBFBao1kFsFHiahRdoCu//oLCI0CtyG/o+oqsplN4gd0emUHhvYyMADEhvLvdHIHufem0hA6VNW9LLIafBdVDxiK6+QHN2vqWXQ9GvN2N4A7QYSocZ5NFQqnQWAPmVUq8G0TuLhEIuAYWJ0nGGSNb1mR67gBKnUp8EmcWuFQolIAxlOaQA6QPhvDL6HVU+A2RrPDqlNyCRvswgQubQVMrJBmTBTyXXQnk2rz7bBZBBlFwLLcQ/miEUHdYMraNmWDPUwmNrsRuqMISCpx9h8f9fhtAotdweRg+tzrQqQ9eKvRKQh6zE0Edd7QHWGR48t9vEEvuSiyHP+0dkMSp53nvPzdN3VRhiRQHPXZqhar4sPoRifM8GsQPpfWQx/hQyNX5z3gEkq5Et+FAmSlEUcAFMSiGVY0Clp3evSe8dxFA6kzDBigex0B0f0CNKc96YmsNn1hurcMqD2B10+R+XlL4BM2jyfQTg9R5TptgglWtMMYPosZDfheyZ1ODjCmhvrikoYFbEP6BA2FsUjFRlGsoyNSiNQ7cXcQNcJ1T5QLS1niffFOzJ9aoIf9CeSScvMxHVQas2P2F+bcPPTOyicn1VmTp8zg0zN8DdKZV9P0GNMFs/PwLg7QhqjTC6WnkQDsGt/9Q6b1Sr33CuHIJHl26NAB0//atiBuhQXqBxmwlNBF0qayLQm2no98xQugi6k9bAhqIBJOUpzUpd7c+DJJef0PaIJvVEdkORRLChrTr0SCfIuPBtIlJ3SiDZCW+xvML+YVN9Wi8/oJE5sXW37S3dxFbpTeCNT6knVdkMpUbUJsZQeZN8RMDBlj6jk5H7bEOPQnAfPvFiJV5c0xvgYn0xQpP+3Rn7dJyYdNkGZ4zQc1vE7WiSKci/JYz17+nOgN55nUETSPKXE04UxiTN2ixfcjReGPa5h82zoM5676g7VnkY6XITVUnEhUE7O2BpXxHgFyzQOxQGuO5gwNYwNstxdCdZXumQAoISRmAwii4oUEtvDTYTmOe0vd5kNF9KCMKLFcVQxTEOH3gBFXG4Tngh1d9Fye+8MMFAimBzRaZTekiOhzAQPhaSWBBFOAvA0vKcKKEQum7FLcSAg46XUiOOQz+Jy5u4i0tREKWfPYRKKsMZE+TeY+Ls3b7wFXVpOUq9v1P9IBSyGe6Ig6jj/Ua69gSkiV/53EGDGE6ixSyUuHfKv6Tl/cOKXfmN+jxIXJfCy1JGN0TZDZ7TFsJIPSFLnd4rrMqmUsSQEVPGymCoXJa81kJjDUUhhyzYqGIwTDsCdSQCpIKLKl/lyb2i8Y5sZRgXwmTjtPATqTacPDEqHM9XQeAjGafF7yPL6pD/q8LxdVWyROKQ5kFtMi1vW93nO/qfgn2uBKikQhuJ7f7juO/nd2PWbOVZEplkbEamwW/FVrHiefb6be2Kkt1slsVJ0jZX8mMK5TIqN6UWx24n/n0lhgyb1ZNfYp9Y1W3KDIYMGaSgkiODVtxf0YwhS9FE4rgsmeV7RgyZpK4Sq37gpWjCkG2uSNyNPWvNyYAhY8sqWcaCU41BZ3ji3GQmk9Ye+BR8dIa8qiypelhxCBUNZIbcnQHkTVNeeL4jlSF/6wNF8fsUt7/PebqnQWO4t9HbQdn6Js2zSW90RW8yeDvSt3yTGFohCCv5r6DL+kgMbXXnIFRQrDK0uBcZzzTYZMh2aLwIcKrBIsOV3f0sfVAnSN+kiDJ8sd3yIMJqKPTdwiBDF9t1oPXGEsN3Nw2AkDqRHYYfrraU9fS6CSsMHfZsDLUFYAsMj26bcPU12U1+hivnbcTVCw6doVr02fTRY6yvshvMDDM/u1Y7sVxjx8ow99ckLpIGjYwMf/vtry0zHHwMnR/LW0IinI5cDDPPjbeuEOqGWRjOB56bUt1R/o70XbSl7UjNmZcTiWRofxMaGGyIerT46eYZxucDgqwo3TCwX0Vdx9B7E1EhwuQrHWfUh+jz6jz23PVOhShepGmam5UtO+eLt/nOSAXgEt1uBQ/L4yE9NWrUqFGjRo0aNWrUqKHGX0fxmLv23XFAAAAAAElFTkSuQmCC;" vertex="1" parent="1">
          <mxGeometry x="495" y="592.5" width="53" height="53" as="geometry" />
        </mxCell>
        <mxCell id="Gzrth85yrPaaRrtoOENp-3" value="" style="endArrow=classic;html=1;" edge="1" parent="1">
          <mxGeometry width="50" height="50" relative="1" as="geometry">
            <mxPoint x="520" y="589" as="sourcePoint" />
            <mxPoint x="520" y="470" as="targetPoint" />
          </mxGeometry>
        </mxCell>
        <mxCell id="Gzrth85yrPaaRrtoOENp-4" value="GitHub" style="text;html=1;strokeColor=none;fillColor=none;align=center;verticalAlign=middle;whiteSpace=wrap;rounded=0;" vertex="1" parent="1">
          <mxGeometry x="501.5" y="648.5" width="40" height="20" as="geometry" />
        </mxCell>
        <mxCell id="Gzrth85yrPaaRrtoOENp-5" value="" style="aspect=fixed;html=1;points=[];align=center;image;fontSize=12;image=img/lib/azure2/compute/Virtual_Machine.svg;" vertex="1" parent="1">
          <mxGeometry x="660" y="318" width="47.44" height="44" as="geometry" />
        </mxCell>
        <mxCell id="Gzrth85yrPaaRrtoOENp-6" value="" style="aspect=fixed;html=1;points=[];align=center;image;fontSize=12;image=img/lib/azure2/compute/Virtual_Machine.svg;" vertex="1" parent="1">
          <mxGeometry x="660" y="382" width="47.44" height="44" as="geometry" />
        </mxCell>
        <mxCell id="Gzrth85yrPaaRrtoOENp-7" value="" style="aspect=fixed;html=1;points=[];align=center;image;fontSize=12;image=img/lib/azure2/compute/Virtual_Machine.svg;" vertex="1" parent="1">
          <mxGeometry x="660" y="430" width="47.44" height="44" as="geometry" />
        </mxCell>
        <mxCell id="Gzrth85yrPaaRrtoOENp-8" value="" style="aspect=fixed;html=1;points=[];align=center;image;fontSize=12;image=img/lib/azure2/compute/Virtual_Machine.svg;" vertex="1" parent="1">
          <mxGeometry x="660" y="481.5" width="47.44" height="44" as="geometry" />
        </mxCell>
        <mxCell id="Gzrth85yrPaaRrtoOENp-9" value="" style="endArrow=classic;html=1;entryX=-0.014;entryY=0.455;entryDx=0;entryDy=0;entryPerimeter=0;" edge="1" parent="1" target="Gzrth85yrPaaRrtoOENp-5">
          <mxGeometry width="50" height="50" relative="1" as="geometry">
            <mxPoint x="560" y="410" as="sourcePoint" />
            <mxPoint x="550" y="420" as="targetPoint" />
          </mxGeometry>
        </mxCell>
        <mxCell id="Gzrth85yrPaaRrtoOENp-10" value="" style="endArrow=classic;html=1;" edge="1" parent="1">
          <mxGeometry width="50" height="50" relative="1" as="geometry">
            <mxPoint x="560" y="410" as="sourcePoint" />
            <mxPoint x="660" y="400" as="targetPoint" />
          </mxGeometry>
        </mxCell>
        <mxCell id="Gzrth85yrPaaRrtoOENp-11" value="" style="endArrow=classic;html=1;entryX=-0.056;entryY=0.33;entryDx=0;entryDy=0;entryPerimeter=0;" edge="1" parent="1" target="Gzrth85yrPaaRrtoOENp-8">
          <mxGeometry width="50" height="50" relative="1" as="geometry">
            <mxPoint x="560" y="410" as="sourcePoint" />
            <mxPoint x="679.33584" y="366.02" as="targetPoint" />
          </mxGeometry>
        </mxCell>
        <mxCell id="Gzrth85yrPaaRrtoOENp-12" value="" style="endArrow=classic;html=1;entryX=-0.014;entryY=0.455;entryDx=0;entryDy=0;entryPerimeter=0;exitX=1;exitY=0.5;exitDx=0;exitDy=0;" edge="1" parent="1">
          <mxGeometry width="50" height="50" relative="1" as="geometry">
            <mxPoint x="560" y="412" as="sourcePoint" />
            <mxPoint x="659.9958399999999" y="450" as="targetPoint" />
          </mxGeometry>
        </mxCell>
        <mxCell id="Gzrth85yrPaaRrtoOENp-13" value="" style="aspect=fixed;html=1;points=[];align=center;image;fontSize=12;image=img/lib/azure2/general/Subscriptions.svg;" vertex="1" parent="1">
          <mxGeometry x="330" y="260" width="24.79" height="40" as="geometry" />
        </mxCell>
        <mxCell id="Gzrth85yrPaaRrtoOENp-14" value="" style="aspect=fixed;html=1;points=[];align=center;image;fontSize=12;image=img/lib/azure2/general/Resource_Groups.svg;" vertex="1" parent="1">
          <mxGeometry x="382" y="290" width="31.87" height="30" as="geometry" />
        </mxCell>
        <mxCell id="Gzrth85yrPaaRrtoOENp-15" value="" style="aspect=fixed;html=1;points=[];align=center;image;fontSize=12;image=img/lib/azure2/app_services/App_Services.svg;" vertex="1" parent="1">
          <mxGeometry x="489.5" y="382" width="64" height="64" as="geometry" />
        </mxCell>
        <mxCell id="Gzrth85yrPaaRrtoOENp-16" value="App Service" style="text;html=1;strokeColor=none;fillColor=none;align=center;verticalAlign=middle;whiteSpace=wrap;rounded=0;" vertex="1" parent="1">
          <mxGeometry x="501.5" y="450" width="40" height="16" as="geometry" />
        </mxCell>
        <mxCell id="Gzrth85yrPaaRrtoOENp-17" value="" style="endArrow=none;html=1;" edge="1" parent="1">
          <mxGeometry width="50" height="50" relative="1" as="geometry">
            <mxPoint x="360" y="270" as="sourcePoint" />
            <mxPoint x="760" y="270" as="targetPoint" />
          </mxGeometry>
        </mxCell>
        <mxCell id="Gzrth85yrPaaRrtoOENp-18" value="" style="endArrow=none;html=1;" edge="1" parent="1">
          <mxGeometry width="50" height="50" relative="1" as="geometry">
            <mxPoint x="760" y="560" as="sourcePoint" />
            <mxPoint x="760" y="270" as="targetPoint" />
          </mxGeometry>
        </mxCell>
        <mxCell id="Gzrth85yrPaaRrtoOENp-19" value="" style="endArrow=none;html=1;" edge="1" parent="1">
          <mxGeometry width="50" height="50" relative="1" as="geometry">
            <mxPoint x="340" y="560" as="sourcePoint" />
            <mxPoint x="760" y="560" as="targetPoint" />
          </mxGeometry>
        </mxCell>
        <mxCell id="Gzrth85yrPaaRrtoOENp-20" value="" style="endArrow=none;html=1;" edge="1" parent="1">
          <mxGeometry width="50" height="50" relative="1" as="geometry">
            <mxPoint x="340" y="560" as="sourcePoint" />
            <mxPoint x="340" y="320" as="targetPoint" />
          </mxGeometry>
        </mxCell>
        <mxCell id="Gzrth85yrPaaRrtoOENp-21" value="Subscriber" style="text;html=1;strokeColor=none;fillColor=none;align=center;verticalAlign=middle;whiteSpace=wrap;rounded=0;" vertex="1" parent="1">
          <mxGeometry x="314.79" y="300" width="40" height="20" as="geometry" />
        </mxCell>
        <mxCell id="Gzrth85yrPaaRrtoOENp-22" value="Resource Group" style="text;html=1;strokeColor=none;fillColor=none;align=center;verticalAlign=middle;whiteSpace=wrap;rounded=0;" vertex="1" parent="1">
          <mxGeometry x="377.93" y="330" width="40" height="20" as="geometry" />
        </mxCell>
        <mxCell id="Gzrth85yrPaaRrtoOENp-23" value="" style="endArrow=none;dashed=1;html=1;" edge="1" parent="1">
          <mxGeometry width="50" height="50" relative="1" as="geometry">
            <mxPoint x="420" y="300" as="sourcePoint" />
            <mxPoint x="740" y="300" as="targetPoint" />
          </mxGeometry>
        </mxCell>
        <mxCell id="Gzrth85yrPaaRrtoOENp-24" value="" style="endArrow=none;dashed=1;html=1;exitX=0.552;exitY=1.5;exitDx=0;exitDy=0;exitPerimeter=0;" edge="1" parent="1" source="Gzrth85yrPaaRrtoOENp-22">
          <mxGeometry width="50" height="50" relative="1" as="geometry">
            <mxPoint x="430" y="310" as="sourcePoint" />
            <mxPoint x="400" y="550" as="targetPoint" />
          </mxGeometry>
        </mxCell>
        <mxCell id="Gzrth85yrPaaRrtoOENp-25" value="" style="endArrow=none;dashed=1;html=1;" edge="1" parent="1">
          <mxGeometry width="50" height="50" relative="1" as="geometry">
            <mxPoint x="740" y="550" as="sourcePoint" />
            <mxPoint x="400" y="550" as="targetPoint" />
            <Array as="points" />
          </mxGeometry>
        </mxCell>
        <mxCell id="Gzrth85yrPaaRrtoOENp-26" value="" style="endArrow=none;dashed=1;html=1;" edge="1" parent="1">
          <mxGeometry width="50" height="50" relative="1" as="geometry">
            <mxPoint x="740" y="550" as="sourcePoint" />
            <mxPoint x="740" y="300" as="targetPoint" />
          </mxGeometry>
        </mxCell>
        <mxCell id="Gzrth85yrPaaRrtoOENp-28" value="AutoScale" style="text;html=1;strokeColor=none;fillColor=none;align=center;verticalAlign=middle;whiteSpace=wrap;rounded=0;" vertex="1" parent="1">
          <mxGeometry x="663.72" y="533" width="40" height="20" as="geometry" />
        </mxCell>
        <mxCell id="Gzrth85yrPaaRrtoOENp-40" value="Internet" style="outlineConnect=0;fontColor=#232F3E;gradientColor=none;strokeColor=#232F3E;fillColor=#ffffff;dashed=0;verticalLabelPosition=bottom;verticalAlign=top;align=center;html=1;fontSize=12;fontStyle=0;aspect=fixed;shape=mxgraph.aws4.resourceIcon;resIcon=mxgraph.aws4.internet;" vertex="1" parent="1">
          <mxGeometry x="200" y="376" width="60" height="60" as="geometry" />
        </mxCell>
        <mxCell id="Gzrth85yrPaaRrtoOENp-43" value="" style="endArrow=classic;html=1;" edge="1" parent="1" source="Gzrth85yrPaaRrtoOENp-40">
          <mxGeometry width="50" height="50" relative="1" as="geometry">
            <mxPoint x="147" y="424" as="sourcePoint" />
            <mxPoint x="340" y="406" as="targetPoint" />
          </mxGeometry>
        </mxCell>
        <mxCell id="Gzrth85yrPaaRrtoOENp-45" value="" style="endArrow=classic;html=1;" edge="1" parent="1">
          <mxGeometry width="50" height="50" relative="1" as="geometry">
            <mxPoint x="140" y="410" as="sourcePoint" />
            <mxPoint x="200" y="410" as="targetPoint" />
          </mxGeometry>
        </mxCell>
      </root>
    </mxGraphModel>
  </diagram>
</mxfile>
